<?xml version="1.0" standalone="no"?>
<!DOCTYPE svg PUBLIC "-//W3C//DTD SVG 20010904//EN"
 "http://www.w3.org/TR/2001/REC-SVG-20010904/DTD/svg10.dtd">
<svg version="1.0" xmlns="http://www.w3.org/2000/svg"
 width="546.000000pt" height="610.000000pt" viewBox="0 0 546.000000 610.000000"
 preserveAspectRatio="xMidYMid meet">

<g transform="translate(0.000000,610.000000) scale(0.100000,-0.100000)"
fill="#000000" stroke="none">
<path d="M2331 5276 l-64 -11 -12 -55 c-14 -68 -27 -93 -62 -118 -45 -32 -101
-43 -147 -30 -39 12 -94 56 -113 92 -10 19 -12 18 -75 -7 -35 -14 -82 -33
-104 -43 l-41 -17 1 -72 c1 -64 -2 -75 -28 -109 -15 -21 -42 -46 -60 -57 -55
-33 -146 -19 -190 30 -11 11 -24 21 -30 21 -11 0 -81 -49 -152 -108 l-37 -30
23 -46 c70 -146 -86 -300 -230 -226 l-38 20 -40 -48 c-21 -26 -53 -68 -71 -94
l-32 -48 32 -40 c44 -54 50 -126 17 -190 -32 -63 -75 -85 -160 -84 -41 1 -69
-3 -72 -10 -3 -6 -23 -53 -44 -105 l-40 -95 40 -28 c79 -58 97 -158 43 -239
-26 -40 -97 -79 -143 -79 -28 0 -29 -2 -40 -77 -17 -110 -16 -163 3 -163 23 0
89 -45 107 -72 39 -60 39 -126 0 -196 -14 -25 -84 -72 -107 -72 -19 0 -20 -53
-3 -162 11 -76 12 -78 40 -78 38 0 114 -37 138 -68 28 -35 43 -97 35 -145 -6
-31 -19 -52 -56 -88 -27 -26 -49 -52 -49 -57 0 -9 43 -117 66 -168 15 -31 16
-31 82 -30 56 0 73 -4 105 -24 83 -55 101 -172 38 -251 l-33 -40 36 -52 c20
-29 53 -72 74 -96 l37 -43 35 21 c142 86 308 -94 221 -242 -18 -32 -28 -20 94
-114 37 -29 73 -53 80 -53 7 0 20 10 31 21 44 49 135 63 190 30 18 -11 45 -36
60 -57 26 -34 29 -45 28 -110 l-1 -73 105 -42 c100 -40 105 -41 115 -23 38 69
125 111 192 93 74 -21 114 -66 130 -148 l12 -56 69 -12 c38 -6 90 -12 115 -12
43 -1 47 1 54 26 10 42 42 81 89 108 52 30 83 31 140 4 54 -25 74 -46 91 -96
8 -22 21 -40 32 -42 10 -2 62 2 116 9 86 12 97 16 97 33 0 76 64 163 136 185
61 18 109 1 167 -61 43 -45 51 -49 68 -39 10 7 23 12 29 12 5 0 39 13 75 30
36 17 70 30 76 30 7 0 8 9 3 28 -13 44 -9 94 11 136 24 50 95 96 147 96 41 0
105 -28 127 -54 8 -9 18 -16 23 -16 14 0 169 120 175 136 3 8 -2 30 -12 50
-30 64 -18 133 33 187 57 60 126 73 197 37 22 -11 40 -20 41 -20 1 0 34 43 73
96 l71 96 -34 39 c-63 69 -57 158 15 230 40 40 86 54 152 44 47 -7 41 -16 105
144 25 63 25 65 7 75 -38 21 -83 78 -93 117 -25 100 66 219 167 219 33 0 31
-6 50 111 16 98 15 129 -6 129 -21 0 -82 36 -100 59 -21 26 -43 81 -43 108 0
32 26 93 52 121 25 25 73 52 96 52 15 0 15 7 -6 180 l-7 55 -40 6 c-79 11
-138 61 -163 138 -22 64 23 158 93 197 17 10 18 15 8 35 -6 13 -18 42 -26 64
-8 22 -23 59 -33 83 l-19 43 -51 -7 c-88 -11 -154 30 -192 119 -24 55 -10 108
40 163 l29 31 -71 96 c-40 54 -73 97 -74 97 -1 0 -19 -9 -41 -20 -97 -49 -207
2 -239 111 -13 44 -6 102 15 124 20 20 6 44 -53 92 -35 27 -76 58 -91 68 -27
17 -28 17 -50 -2 -103 -94 -239 -57 -287 79 -11 29 -11 45 -2 76 15 48 15 52
2 52 -5 0 -39 14 -75 30 -36 17 -70 30 -75 30 -6 0 -19 5 -29 12 -15 9 -23 9
-35 -1 -9 -8 -16 -17 -16 -22 0 -23 -59 -64 -113 -80 -91 -26 -207 78 -207
186 0 20 -7 23 -62 30 -35 5 -87 9 -116 9 -53 1 -54 1 -67 -37 -7 -21 -21 -47
-30 -57 -23 -25 -99 -60 -130 -60 -61 0 -144 69 -160 133 -7 25 -10 27 -59 26
-28 -1 -80 -7 -115 -13z m-195 -897 c208 -37 327 -145 380 -342 18 -69 20
-537 2 -555 -13 -13 -321 -18 -352 -6 -14 5 -16 33 -16 211 0 129 -4 220 -12
245 -34 113 -176 102 -193 -15 -3 -23 -5 -439 -3 -923 3 -851 4 -883 22 -903
36 -40 135 -23 156 28 7 17 9 111 8 271 l-3 245 -50 3 c-27 2 -53 9 -57 15
-13 21 -9 312 4 325 9 9 76 12 239 12 199 0 230 -2 244 -17 15 -15 16 -57 12
-467 -4 -417 -5 -456 -24 -511 -28 -86 -46 -117 -101 -173 -98 -100 -268 -148
-443 -123 -232 33 -340 129 -384 343 -14 64 -15 203 -13 1018 l3 945 23 65
c29 84 78 157 141 211 100 86 266 125 417 98z m1252 -18 c8 -5 18 -40 23 -82
4 -41 13 -108 19 -149 5 -41 14 -109 20 -150 5 -41 14 -109 20 -150 5 -41 19
-142 30 -225 10 -82 24 -185 30 -227 5 -43 14 -111 20 -150 5 -40 16 -125 24
-188 9 -63 20 -153 26 -200 6 -47 15 -112 20 -145 5 -33 14 -98 20 -145 6 -47
15 -119 21 -160 5 -41 14 -106 19 -145 5 -38 14 -101 19 -140 6 -38 15 -110
21 -160 6 -49 16 -119 22 -154 9 -51 8 -65 -3 -72 -8 -5 -96 -9 -196 -9 -213
0 -198 -8 -213 120 -14 111 -29 231 -41 320 -5 41 -12 103 -16 138 l-6 62 -98
0 -99 0 0 -32 c0 -17 -4 -59 -9 -92 -14 -92 -29 -206 -47 -356 -9 -74 -21
-141 -27 -148 -7 -9 -56 -12 -201 -10 l-191 3 1 40 c0 22 6 81 12 130 25 182
33 242 42 310 5 39 18 142 30 230 30 221 37 278 49 370 10 76 19 147 42 315 9
71 14 110 38 295 6 44 15 115 21 158 5 42 15 112 20 155 6 42 15 111 21 152 5
41 14 111 20 155 6 44 14 109 19 145 5 36 12 90 16 120 4 30 11 61 17 68 11
14 423 18 445 3z"/>
<path d="M3086 2949 c-84 -66 -71 -195 24 -244 148 -77 278 147 141 244 -41
29 -128 29 -165 0z"/>
</g>
</svg>
